<?xml version="1.0" encoding="utf-8"?>
<!-- Generator: Adobe Illustrator 24.3.0, SVG Export Plug-In . SVG Version: 6.00 Build 0)  -->
<svg version="1.1" id="Capa_1" xmlns="http://www.w3.org/2000/svg" xmlns:xlink="http://www.w3.org/1999/xlink" x="0px" y="0px"
	 viewBox="0 0 400 300" style="enable-background:new 0 0 400 300;" xml:space="preserve">
<style type="text/css">
	.st0{fill:none;stroke:#000000;stroke-miterlimit:10;}
	.st1{fill:#0000FF;stroke:#000000;stroke-miterlimit:10;}
</style>
<path class="st0" d="M91.55,112.67c4.21-20.68,15.91-38.94,31.39-48.94c12.39,18.65,13.58,44.55,13.36,68.52
	c-0.1,10.59-2.06,23.94-10.52,26.48c-7.65-13.53-9.15-31.86-3.85-46.96c5.27-15,16.46-25.95,28.64-32.77
	c2.06-1.15,4.18-2.21,6.4-2.72c3.23-0.74,6.54-0.3,9.81,0.14c7.19,0.97,14.37,1.94,21.56,2.91c2.74,0.37,5.53,0.75,8.1,1.98
	c3.33,1.59,6.11,4.5,8.81,7.36c7.74,8.18,15.48,16.37,23.22,24.55c2.07,2.18,4.17,4.42,5.58,7.27c1.35,2.74,2,5.89,2.62,9
	c2.31,11.47,4.63,22.94,6.94,34.41c0.41,2.04,0.82,4.19,0.4,6.23c-0.4,1.93-1.5,3.51-2.57,5.02c-4.07,5.75-8.14,11.49-12.21,17.24
	c-1.2,1.69-2.41,3.4-3.84,4.79c-5.1,4.95-12.17,5.28-18.7,5.33c-18.94,0.15-39.34-0.74-54.43-14.65
	c-7.73-7.12-13.46-17.39-16.06-28.74c5.84-13.86,18.16-23.33,30.97-23.81c1.92-0.07,3.84,0.04,5.75,0.16
	c6.29,0.38,12.58,0.75,18.86,1.13c1.77,0.11,3.6,0.23,5.2,1.17c1.8,1.06,3.1,3.03,4.34,4.93c6.78,10.43,13.56,20.87,20.34,31.3
	c1.23,1.89,2.49,3.86,2.97,6.19c0.49,2.38,0.13,4.88-0.24,7.3c-1.95,12.81-3.91,25.62-5.86,38.43c-0.4,2.6-0.82,5.29-2.06,7.47
	c-1.08,1.91-2.69,3.26-4.26,4.57c-5.25,4.37-10.49,8.74-15.74,13.11c-1.49,1.24-2.98,2.48-4.55,3.55
	c-10.23,6.96-23.85,5.71-33.1-3.04c-1.45-16.62-2.76-34.3,3.38-49.26c1.35-3.28,3.02-6.35,4.7-9.41
	c7.43-13.57,14.85-27.13,22.28-40.7c3.21-5.87,6.46-11.79,10.6-16.72c3.28-3.9,7.06-7.12,10.83-10.31
	c17.02-14.45,34.04-28.89,51.06-43.34c2.94-2.5,5.93-5.03,9.32-6.48c2.89-1.24,5.97-1.66,9.02-2.07
	c16.33-2.18,32.66-4.37,48.99-6.55c2.29-0.31,4.61-0.61,6.9-0.27c2.78,0.42,5.4,1.79,7.92,3.27c16.57,9.73,30.78,25.3,40.46,44.32
	c5.43,10.67,9.53,23.47,6.92,35.61c-4.06,18.89-21.83,27.54-37.54,31.67c-35.25,9.27-72.02,9.89-107.46,1.79
	c-17.19-3.92-34.71-10.3-47.7-24.53c-12.3-13.47-19.49-33.58-19.2-53.69c0.28-19.49,7.16-38.53,5.49-57.91
	c-8.33-1.37-16.78,3.23-22.9,10.23s-10.23,16.2-13.65,25.54c-6.25,17.02-10.58,36.46-5.78,54.16c3.98,14.66,13.75,26.04,24.55,34.15
	c7.69-3.33,15.38-6.65,23.07-9.98c0.95-13.88,1.88-28.06-0.95-41.55c-1.81-8.62-5.11-16.67-8.88-24.3
	c-8.93-18.09-22.94-35.54-40.3-35.34c-17.53,0.2-31.26,18.18-40.63,36.19c-2.96,5.68-5.8,11.88-5.78,18.6
	c0.01,2.56,0.44,5.09,0.87,7.6c1.57,9.2,3.14,18.39,4.71,27.59c0.41,2.41,0.83,4.84,1.6,7.12c1.45,4.3,4.07,7.84,6.73,11.19
	c24.11,30.33,55.61,51.88,89.45,61.23c1.22-3.33,2.45-6.66,3.67-9.99c-21.77-17.74-47.72-27.8-73.92-28.67
	c-2.57-0.08-5.15-0.08-7.7,0.33c-11.06,1.81-20.18,11.03-28.64,19.88c-0.31,11.06-0.35,23.15,5.31,31.81
	c2.03,3.11,4.66,5.54,7.31,7.85c52.3,45.67,123.51,57.43,183.94,30.38c2.39-1.07,4.78-2.21,7-3.74
	c9.39-6.49,14.55-19.09,19.17-30.96c-17.82-39.34-54.59-58.85-82.98-87.6c-7.11-7.2-13.92-15.35-17.62-25.66
	c-1-2.79-1.74-6.1-0.57-8.79c1.16-2.66,3.77-3.76,6.16-4.56c14.44-4.84,29.53-6.82,44.49-5.85c2,7.2-1.92,15.32-7.41,18.96
	c-5.5,3.63-12.09,3.74-18.32,3.07c-20.02-2.15-39.06-11.28-57.35-21.38C138.54,91.9,99.12,63.4,68.46,23.54
	c0.71-1.85,1.41-3.7,2.12-5.55c5.16-1.4,10.46-2.8,15.68-1.8s10.41,4.96,11.92,11.11c1.03,4.21,0.23,8.76-1.02,12.87
	c-7.37,24.09-30.24,37.8-51.3,35.46C37.45,74.7,28.53,71,24,62.34c1.69-4.07,3.39-8.15,5.08-12.22c4.38-0.15,8.76-0.3,13.14-0.44
	c26.62,61.69,24.03,136.13,11.73,204.16c36.07-18.99,70.64-42.16,103.1-69.1"/>
<circle class="st1" cx="245" cy="53" r="34.5"/>
<rect x="48.5" y="208.5" class="st1" width="81" height="81"/>
</svg>
